<svg xmlns="http://www.w3.org/2000/svg" xmlns:xlink="http://www.w3.org/1999/xlink" viewBox="0 0 1920 945"><defs><style>.cls-1,.cls-15,.cls-21,.cls-25,.cls-6{fill:none;}.cls-2{clip-path:url(#clip-path);}.cls-3{fill:url(#Безымянный_градиент_5);}.cls-4{fill:url(#Безымянный_градиент_163);}.cls-5{clip-path:url(#clip-path-2);}.cls-6{stroke:#98d5ea;}.cls-15,.cls-18,.cls-21,.cls-25,.cls-6{stroke-miterlimit:10;}.cls-18,.cls-25,.cls-6{stroke-width:4.49px;}.cls-7{clip-path:url(#clip-path-3);}.cls-14,.cls-8,.cls-9{fill:#fff;}.cls-8{opacity:0.1;}.cls-9{opacity:0.2;}.cls-10{fill:url(#Безымянный_градиент_149);}.cls-11{fill:#7ccce6;}.cls-12,.cls-18{fill:#f6f8e8;}.cls-13{fill:#ecedd9;}.cls-15{stroke:#b7b7b7;stroke-width:2.22px;}.cls-16{fill:#d8d8d8;}.cls-17{fill:#7c7c7c;}.cls-18{stroke:#e0e0cd;}.cls-19{fill:#f4a4a4;}.cls-20{fill:#7a7a7a;}.cls-21{stroke:#fcf6bf;stroke-width:7.86px;}.cls-22{fill:#2d2d2d;}.cls-23{fill:#3d455b;}.cls-24{fill:#495268;}.cls-25{stroke:#7a7a7a;}</style><clipPath id="clip-path"><rect class="cls-1" x="-0.15" y="0.03" width="1920" height="945"/></clipPath><linearGradient id="Безымянный_градиент_5" x1="243.82" y1="-243.52" x2="1676.2" y2="1188.86" gradientUnits="userSpaceOnUse"><stop offset="0" stop-color="#c1e4f2"/><stop offset="1" stop-color="#9dd7f2"/></linearGradient><linearGradient id="Безымянный_градиент_163" x1="1177.29" y1="-69.58" x2="1802.56" y2="1013.42" gradientUnits="userSpaceOnUse"><stop offset="0" stop-color="#c1e4f2"/><stop offset="0.87" stop-color="#9dd7f2"/></linearGradient><clipPath id="clip-path-2"><rect class="cls-1" x="1047.08" y="-0.87" width="614.78" height="945.37"/></clipPath><clipPath id="clip-path-3"><rect class="cls-1" x="1654.74" y="-0.47" width="633.69" height="945.37"/></clipPath><linearGradient id="Безымянный_градиент_149" x1="-0.03" y1="845.59" x2="1673.81" y2="845.59" gradientUnits="userSpaceOnUse"><stop offset="0" stop-color="#84cfed"/><stop offset="0.87" stop-color="#9dd7f2"/></linearGradient></defs><g id="Слой_3" data-name="Слой 3"><g class="cls-2"><rect class="cls-3" x="-0.03" y="0.33" width="1920.08" height="944.68"/><rect class="cls-4" x="1058.1" y="-0.76" width="863.65" height="945.37"/><g class="cls-5"><path class="cls-6" d="M1008.5,117.91c-5.26,8.31-25.13,40.69-25.13,55.44A24.67,24.67,0,0,0,1008,198c13.29,0,23.88-10.63,24.63-24.72C1033.36,159.82,1013.67,126.42,1008.5,117.91Z"/><line class="cls-6" x1="1008.4" y1="752.22" x2="1008.4" y2="954.38"/><line class="cls-6" x1="1008.4" y1="147.24" x2="1008.4" y2="587.92"/><line class="cls-6" x1="1008.4" y1="-9.66" x2="1008.4" y2="84.62"/><line class="cls-6" x1="956.59" y1="954.38" x2="956.59" y2="-9.66"/><line class="cls-6" x1="1060.21" y1="496.92" x2="1060.21" y2="954.36"/><line class="cls-6" x1="1060.21" y1="-9.67" x2="1060.21" y2="435.79"/><line class="cls-6" x1="1112.09" y1="56.96" x2="1112.02" y2="-9.68"/><line class="cls-6" x1="1112.74" y1="671.38" x2="1112.19" y2="149.65"/><line class="cls-6" x1="1112.02" y1="954.35" x2="1112.02" y2="729.02"/><line class="cls-6" x1="1163.84" y1="259.82" x2="1163.84" y2="-9.69"/><line class="cls-6" x1="1163.84" y1="954.35" x2="1163.84" y2="450.57"/><line class="cls-6" x1="1215.64" y1="834.94" x2="1215.64" y2="954.35"/><line class="cls-6" x1="1215.64" y1="239.7" x2="1215.64" y2="741.88"/><line class="cls-6" x1="1215.64" y1="-9.69" x2="1215.64" y2="184.06"/><line class="cls-6" x1="1267.45" y1="616.38" x2="1267.45" y2="-9.7"/><line class="cls-6" x1="1267.45" y1="954.33" x2="1267.45" y2="696.9"/><line class="cls-6" x1="1319.27" y1="330.51" x2="1319.27" y2="-9.71"/><line class="cls-6" x1="1319.27" y1="850.15" x2="1319.27" y2="445.81"/><path class="cls-6" d="M1084.75,412.05c-.75-14.09-11.34-24.72-24.63-24.72A24.66,24.66,0,0,0,1035.48,412c0,14.75,19.87,47.13,25.13,55.44C1065.78,458.9,1085.47,425.51,1084.75,412.05Z"/><path class="cls-6" d="M1112.62,701.66c-4,6.36-19.24,31.15-19.24,42.44A18.88,18.88,0,0,0,1112.24,763c10.18,0,18.29-8.14,18.86-18.92C1131.65,733.74,1116.58,708.17,1112.62,701.66Z"/><path class="cls-6" d="M1291.63,593.57c-.75-14.09-11.34-24.72-24.63-24.72a24.67,24.67,0,0,0-24.64,24.64c0,14.75,19.88,47.14,25.13,55.44C1272.66,640.42,1292.35,607,1291.63,593.57Z"/><path class="cls-6" d="M1215.52,219.76c-4,6.36-19.24,31.15-19.24,42.45a18.88,18.88,0,0,0,18.86,18.86c10.18,0,18.29-8.13,18.87-18.92C1234.55,251.84,1219.48,226.28,1215.52,219.76Z"/><path class="cls-6" d="M1371.15,117.9c-5.26,8.31-25.13,40.69-25.13,55.44A24.67,24.67,0,0,0,1370.65,198c13.3,0,23.89-10.63,24.64-24.72C1396,159.8,1376.31,126.41,1371.15,117.9Z"/><line class="cls-6" x1="1371.04" y1="752.2" x2="1371.04" y2="954.36"/><line class="cls-6" x1="1371.04" y1="147.22" x2="1371.04" y2="587.91"/><line class="cls-6" x1="1371.04" y1="-9.67" x2="1371.04" y2="84.6"/><line class="cls-6" x1="1422.86" y1="496.91" x2="1422.86" y2="954.35"/><line class="cls-6" x1="1422.86" y1="-9.69" x2="1422.86" y2="435.77"/><line class="cls-6" x1="1474.74" y1="56.94" x2="1474.67" y2="-9.7"/><line class="cls-6" x1="1475.39" y1="671.36" x2="1474.84" y2="149.63"/><line class="cls-6" x1="1474.67" y1="954.33" x2="1474.67" y2="729"/><line class="cls-6" x1="1526.48" y1="259.8" x2="1526.48" y2="-9.7"/><line class="cls-6" x1="1526.48" y1="954.33" x2="1526.48" y2="450.55"/><line class="cls-6" x1="1578.29" y1="834.92" x2="1578.29" y2="954.33"/><line class="cls-6" x1="1578.29" y1="239.68" x2="1578.29" y2="741.86"/><line class="cls-6" x1="1578.29" y1="-9.7" x2="1578.29" y2="184.04"/><line class="cls-6" x1="1630.1" y1="616.36" x2="1630.1" y2="-9.72"/><line class="cls-6" x1="1630.1" y1="954.32" x2="1630.1" y2="696.88"/><line class="cls-6" x1="1681.91" y1="330.49" x2="1681.91" y2="-9.73"/><line class="cls-6" x1="1681.91" y1="954.3" x2="1681.91" y2="445.79"/><path class="cls-6" d="M1447.4,412c-.75-14.09-11.34-24.72-24.64-24.72A24.67,24.67,0,0,0,1398.13,412c0,14.75,19.87,47.14,25.13,55.44C1428.42,458.88,1448.12,425.49,1447.4,412Z"/><path class="cls-6" d="M1475.27,701.64c-4,6.36-19.25,31.15-19.25,42.45A18.89,18.89,0,0,0,1474.89,763c10.18,0,18.29-8.13,18.86-18.92C1494.3,733.73,1479.22,708.16,1475.27,701.64Z"/><path class="cls-6" d="M1654.28,593.55c-.75-14.09-11.34-24.72-24.64-24.72A24.67,24.67,0,0,0,1605,593.48c0,14.75,19.87,47.13,25.13,55.44C1635.31,640.41,1655,607,1654.28,593.55Z"/><path class="cls-6" d="M1578.17,219.74c-4,6.36-19.24,31.16-19.24,42.45a18.89,18.89,0,0,0,18.86,18.87c10.18,0,18.29-8.14,18.86-18.93C1597.2,251.83,1582.12,226.26,1578.17,219.74Z"/><path class="cls-6" d="M1343.71,831.89c-.75-14.1-11.34-24.72-24.64-24.72a24.67,24.67,0,0,0-24.64,24.64c0,14.75,19.88,47.13,25.14,55.44C1324.73,878.74,1344.42,845.34,1343.71,831.89Z"/></g><g class="cls-7"><line class="cls-6" x1="1633.05" y1="752.62" x2="1633.05" y2="954.77"/><line class="cls-6" x1="1633.05" y1="147.64" x2="1633.05" y2="588.32"/><line class="cls-6" x1="1633.05" y1="-9.26" x2="1633.05" y2="85.02"/><line class="cls-6" x1="1581.24" y1="954.77" x2="1581.24" y2="-9.26"/><line class="cls-6" x1="1684.86" y1="497.32" x2="1684.86" y2="954.76"/><line class="cls-6" x1="1684.86" y1="-9.27" x2="1684.86" y2="436.18"/><line class="cls-6" x1="1736.74" y1="57.36" x2="1736.67" y2="-9.28"/><line class="cls-6" x1="1737.39" y1="671.77" x2="1736.84" y2="150.05"/><line class="cls-6" x1="1736.67" y1="954.75" x2="1736.67" y2="729.42"/><line class="cls-6" x1="1788.49" y1="260.22" x2="1788.49" y2="-9.29"/><line class="cls-6" x1="1788.49" y1="954.74" x2="1788.49" y2="450.97"/><line class="cls-6" x1="1840.29" y1="835.34" x2="1840.29" y2="954.74"/><line class="cls-6" x1="1840.29" y1="240.09" x2="1840.29" y2="742.28"/><line class="cls-6" x1="1840.29" y1="-9.29" x2="1840.29" y2="184.46"/><line class="cls-6" x1="1892.1" y1="616.78" x2="1892.1" y2="-9.3"/><line class="cls-6" x1="1892.1" y1="954.73" x2="1892.1" y2="697.3"/><path class="cls-6" d="M1709.4,412.45c-.75-14.1-11.34-24.72-24.64-24.72a24.66,24.66,0,0,0-24.63,24.64c0,14.75,19.87,47.13,25.13,55.44C1690.43,459.3,1710.12,425.9,1709.4,412.45Z"/><path class="cls-6" d="M1737.27,702.06c-4,6.36-19.24,31.15-19.24,42.44a18.89,18.89,0,0,0,18.86,18.87c10.18,0,18.29-8.14,18.86-18.93C1756.3,734.14,1741.22,708.57,1737.27,702.06Z"/><path class="cls-6" d="M1916.28,594c-.75-14.09-11.34-24.72-24.63-24.72A24.66,24.66,0,0,0,1867,593.89c0,14.75,19.87,47.13,25.13,55.44C1897.31,640.82,1917,607.42,1916.28,594Z"/><path class="cls-6" d="M1840.17,220.16c-4,6.36-19.24,31.15-19.24,42.44a18.88,18.88,0,0,0,18.86,18.87c10.18,0,18.29-8.14,18.86-18.93C1859.2,252.24,1844.13,226.67,1840.17,220.16Z"/><path class="cls-6" d="M1968.36,832.28c-.75-14.09-11.34-24.72-24.64-24.72a24.67,24.67,0,0,0-24.64,24.64c0,14.76,19.88,47.14,25.13,55.44C1949.38,879.13,1969.07,845.74,1968.36,832.28Z"/></g><circle class="cls-8" cx="614.41" cy="398.24" r="189.13"/><circle class="cls-8" cx="614.41" cy="398.24" r="140.38"/><circle class="cls-9" cx="614.41" cy="398.24" r="105.87"/><path class="cls-10" d="M.5,785.29c34.48,4.33,231.76,21.43,294.68,13.45,62.48-7.93,62-18,127-25.69,70-8.25,83.33,2,178.43-8,15.79-1.65,38.19-4.3,73.59-8.5,64.27-7.63,76.19-9.56,99.1-10.36,18.81-.65,51.69-1.8,85.79,4.07,51,8.77,60.55,25.63,123.51,52.51,73.55,31.4,136.92,41,170,45.85a679.12,679.12,0,0,0,107.14,7c72.17-.27,88-1.21,414,89.89L0,945Z"/><path class="cls-11" d="M422.19,773.05c70-8.25,83.33,2,178.43-8,15.79-1.65,38.19-4.3,73.59-8.5,64.27-7.63,76.19-9.56,99.1-10.36,18.81-.65,51.69-1.8,85.79,4.07,9.69,1.67,63.07,18.42,33.18,37.46C854.09,812.07,723.86,840,664.84,842.87,593,846.42,428.15,829.79,380,811.16,335.93,794.09,404.57,775.12,422.19,773.05Z"/><path class="cls-12" d="M961.24,614c-.48-15.18-1-32-11.21-48.71-3.9-6.38-10.45-16.78-23.71-22.85a48.49,48.49,0,0,0-14.88-4.08,51.44,51.44,0,0,1-26.15-10.42c-3.35-2.62-7-5.43-11-8.37-7-5.24-17-12.64-29-20.17C821,484.06,805.42,473,796.73,475.2c0,0-12.4,33.31-9.37,63.23a139.76,139.76,0,0,0-56.72-27.73C662.92,495.45,608.88,539.24,600.82,546a162.76,162.76,0,0,0-41.74,53.85,117.29,117.29,0,0,1-37.32,44.22l-.35.24a211.15,211.15,0,0,1-39.51,23.08C393.1,696.09,307,629.64,290.54,587.74c-21.42-54.57,4.15-108.31,58.72-129.73,43.65-17.14,85.69,7.79,98.54,42.84,12.92,35.23.39,67.78-27.26,77.52-28.32,10-60.75,3.84-71.72-24.1-8.77-22.35-1.95-50.1,20.4-58.88,17.88-7,41.2,2.06,48.22,19.94,5.61,14.3.39,31.47-13.91,37.09-11.45,4.49-22.18,1.31-26.67-10.13-3.59-9.16-3.32-21.2,6.45-22.32,7.06-.8,8.87,3.36,8.62,9.27-.13,3,4.44,6,8.17,5.29,6.18-1.2,7.95-7.29,6.86-13.49-2.26-12.95-18-18.91-34-12-14,6.08-17.52,26-13,38C370.12,574,397,574,412,568.24c29.11-11.19,30.35-42,23.37-60.76C421.7,470.86,386.9,466,363,473.32c-41.19,12.61-51.24,59.57-39.81,88.69,14.28,36.39,70.36,54.27,106.9,40.37C478.37,584,495.66,530,477.8,484.52A110.61,110.61,0,0,0,334.43,422a138.26,138.26,0,0,0-78.18,179.22A172.59,172.59,0,0,0,374.82,705.62c33,8.37,117.82,27.27,183.68-11.55a178.31,178.31,0,0,1,31.85,4.47L617,704.81l58.19,61.75L657.5,802.27a3.66,3.66,0,0,0,2.09,5.09l8.84-12.77-4.58,14.25a8.34,8.34,0,0,0,9.29-2.75l22.91-29.32,40.83,1.4a4.74,4.74,0,0,0,4.85-5.41l-12.18-2.65L741,768a5.87,5.87,0,0,0-4.84-4.94l-39.59-6.58L655,701l70.79-3.32-6.56,11a12.27,12.27,0,0,0-1.29,9.51A24,24,0,0,0,726.51,731l63.9,49-15,42.85A6.5,6.5,0,0,0,778.9,831l6.9-13.23-3.22,14.42a10.49,10.49,0,0,0,12.36-5.95l19.3-44.34L867,798.61a4.11,4.11,0,0,0,5.22-5l-22.37-11.79,20.55,4.85a12.6,12.6,0,0,0-6.62-7.37L821,759.46l-58.47-46.84a3.16,3.16,0,0,1-.48-4.43l10.32-12.67h.15l49.47,15.09,97.43,1.25A20.39,20.39,0,0,0,939,697.7l0-.11c5.38-16.85-4.68-38.29-25.34-53.42l42.37-2a4.16,4.16,0,0,0,3.92-3.6A151.19,151.19,0,0,0,961.24,614Z"/><path class="cls-13" d="M929.2,636.47c-9.13,6.25-53.7-3.28-68.83-5.05-22.7-2.65-30.85,10.52-45,5.56-63-22-27.07-175-16.9-160.9,26.47,36.65.13,51.88,20.58,76,14.29,16.89,50.78-12.49,79.06,10.33C937.91,594.57,938.56,630.06,929.2,636.47Z"/><path class="cls-14" d="M1100.8,551.9l14.52,24.84a5,5,0,0,0,8.57-5l-14.52-24.85Z"/><path class="cls-14" d="M1130.39,535.11,1144.91,560a5,5,0,1,0,8.56-5L1139,530.11Z"/><rect class="cls-14" x="1232.24" y="368.37" width="100.85" height="100.85" rx="13.72"/><rect class="cls-15" x="1238.22" y="374.35" width="88.9" height="88.9" rx="12.09"/><rect class="cls-16" x="1253.03" y="389.16" width="59.27" height="59.27" rx="29.63"/><circle class="cls-17" cx="1265.38" cy="417.22" r="5.86"/><circle class="cls-17" cx="1299.59" cy="417.58" r="5.86"/><circle class="cls-18" cx="871.3" cy="592.09" r="28.08"/><path class="cls-19" d="M914.29,644.22a190.93,190.93,0,0,1-46.79-3.63,163.79,163.79,0,0,0-47.06-2.8h0l1.49.91,1.12.58a162.9,162.9,0,0,1,36.66,26.55c3.32,3.18,6.4,5.87,9.1,8.12,13.81,11.48,27,21.92,36.06,26.78,7.46,4,27.54,8.5,30.68,3.39C955,672.49,914.29,644.22,914.29,644.22Z"/><path class="cls-20" d="M1094.43,557.06h0c-16.34-27.74-18-57-3.67-65.48h0c14.3-8.43,39.15,7.22,55.49,35h0Z"/><polyline class="cls-21" points="1235 594.61 1278.46 630.68 1263.08 641.33 1298.47 671.13"/><polyline class="cls-21" points="1142.74 597.32 1165.68 648.93 1147.18 651.65 1165.67 694.05"/><polyline class="cls-21" points="1071.2 660.56 1057.71 715.41 1041.42 706.22 1030.06 751.06"/><circle class="cls-22" cx="866.24" cy="589.49" r="9.47"/><path class="cls-23" d="M723.82,224.45H689.65V157.2l-47.76,67.25H612.72V114.52h34.16v60.2l44.24-60.2h32.7ZM711.68,65.78q0,15.94-10.92,26t-32.35,10.08q-21.33,0-32.3-10.13t-11-26h27.21q.2,9.69,3.72,14.43T668.41,85q8.91,0,12.39-4.65t3.67-14.53Z"/><path class="cls-23" d="M801.24,78.7l-4.5,103.75H764.83L760.33,78.7Zm-.68,145.75H761V198.6h39.55Z"/><path class="cls-23" d="M565.93,96.07q-20.07-20.41-55.11-20.41T455.71,96.07q-20,20.42-20,55.55a104,104,0,0,0,1.45,17.62,9,9,0,0,1,10.5,2.13c.17.19.33.39.48.59a10.86,10.86,0,1,1,19.74,8.75,10.48,10.48,0,0,1,4,16.48,13.39,13.39,0,0,1,1.53,22.57q15.85,7.71,37.39,7.72,35.23,0,55.21-20.51t20-55.35Q586,116.48,565.93,96.07ZM544.3,172.81a43.64,43.64,0,0,1-8.13,15.71,30,30,0,0,1-11.45,8.66,34.88,34.88,0,0,1-13.8,2.79,35.36,35.36,0,0,1-13.8-2.74,30.06,30.06,0,0,1-11.46-8.51,44,44,0,0,1-7.88-14.93q-3-9.15-3-22.17a73.75,73.75,0,0,1,3.08-22.37q3.09-9.63,8-15.12a31.47,31.47,0,0,1,11.6-8.42,36.51,36.51,0,0,1,27,.1A29.67,29.67,0,0,1,536,114.33a43.25,43.25,0,0,1,7.92,14.87q3,9.21,3,22.32A76.42,76.42,0,0,1,544.3,172.81Z"/><path class="cls-24" d="M446.46,268a9,9,0,0,1-3-.48,6.27,6.27,0,0,1-2.36-1.42,6.35,6.35,0,0,1-1.53-2.36,9.21,9.21,0,0,1-.54-3.28,8.9,8.9,0,0,1,.52-3.13,6.56,6.56,0,0,1,1.5-2.41,6.33,6.33,0,0,1,2.35-1.5,8.62,8.62,0,0,1,3.06-.52,11.24,11.24,0,0,1,3,.37,9.7,9.7,0,0,1,1.19.41c.35.15.66.3.93.43v3.52h-.43c-.18-.15-.41-.34-.69-.55a7.68,7.68,0,0,0-.94-.63,6.44,6.44,0,0,0-1.16-.53,4.23,4.23,0,0,0-1.34-.21,4.47,4.47,0,0,0-1.51.25,3.6,3.6,0,0,0-1.31.82,4,4,0,0,0-.94,1.47,6.09,6.09,0,0,0-.35,2.22,5.84,5.84,0,0,0,.38,2.28,4,4,0,0,0,1,1.45,3.62,3.62,0,0,0,1.33.76,4.93,4.93,0,0,0,1.45.23,4.85,4.85,0,0,0,1.35-.2,4.93,4.93,0,0,0,1.23-.56,8.63,8.63,0,0,0,.89-.6c.28-.21.5-.4.68-.55h.39v3.47l-1.05.46a8.52,8.52,0,0,1-1,.37c-.48.14-.92.24-1.34.32A11.08,11.08,0,0,1,446.46,268Z"/><path class="cls-24" d="M463.12,259.16h-3.49v8.58H456.1v-8.58h-3.5v-2.39h10.52Z"/><path class="cls-24" d="M476.32,262.1a7,7,0,0,1-.42,2.48,5.46,5.46,0,0,1-1.09,1.83,4.64,4.64,0,0,1-3.49,1.54,5.31,5.31,0,0,1-1.59-.2,7.42,7.42,0,0,1-1.33-.56v4.57h-3.53v-15h3.53v1.15a8.46,8.46,0,0,1,1.65-1.05,4.43,4.43,0,0,1,1.94-.4,3.77,3.77,0,0,1,3.19,1.5A6.71,6.71,0,0,1,476.32,262.1Zm-3.63.08a3.91,3.91,0,0,0-.54-2.32,2,2,0,0,0-1.73-.72,3.71,3.71,0,0,0-1,.15,4,4,0,0,0-1,.43v5.51a2.94,2.94,0,0,0,.75.18l.78,0a2.56,2.56,0,0,0,2.08-.81A3.77,3.77,0,0,0,472.69,262.18Z"/><path class="cls-24" d="M485.49,266.58l-.7.52a4.54,4.54,0,0,1-.79.47,4.47,4.47,0,0,1-1.07.35,6.59,6.59,0,0,1-1.22.11,3.73,3.73,0,0,1-2.62-1A3.23,3.23,0,0,1,478,264.6a3.33,3.33,0,0,1,.54-2,3.61,3.61,0,0,1,1.52-1.2,8.68,8.68,0,0,1,2.43-.62c1-.13,2-.22,3-.28v-.06a1.25,1.25,0,0,0-.74-1.25,5.35,5.35,0,0,0-2.19-.35,6.12,6.12,0,0,0-1.85.31c-.66.21-1.13.36-1.42.47H479V257c.37-.1,1-.22,1.81-.35a16.46,16.46,0,0,1,2.52-.2,7.85,7.85,0,0,1,4.33.92,3.28,3.28,0,0,1,1.33,2.9v7.46h-3.49Zm0-1.71v-2.28l-1.54.16a7.87,7.87,0,0,0-1.26.24,1.7,1.7,0,0,0-.8.48,1.2,1.2,0,0,0-.28.84,2.09,2.09,0,0,0,.06.55.82.82,0,0,0,.29.41,1.41,1.41,0,0,0,.54.29,3.81,3.81,0,0,0,1,.09,3,3,0,0,0,1.07-.21A3.58,3.58,0,0,0,485.49,264.87Z"/><path class="cls-24" d="M503.29,267.74h-3.53v-4.68h-4v4.68h-3.53v-11h3.53v3.78h4v-3.78h3.53Z"/><path class="cls-24" d="M517.69,267.74h-3.41V261l-4.76,6.71h-2.91v-11H510v6l4.41-6h3.26Z"/><path class="cls-24" d="M530.07,267.74H521v-11h3.53v8.56h4v-8.56h3.53v8.56h1.13v5.12h-3.13Z"/><path class="cls-24" d="M542.23,266.58l-.7.52a4.61,4.61,0,0,1-1.87.82,6.51,6.51,0,0,1-1.22.11,3.72,3.72,0,0,1-2.61-1,3.19,3.19,0,0,1-1.06-2.47,3.33,3.33,0,0,1,.54-2,3.61,3.61,0,0,1,1.52-1.2,8.6,8.6,0,0,1,2.42-.62c1-.13,2-.22,3-.28v-.06a1.25,1.25,0,0,0-.74-1.25,5.35,5.35,0,0,0-2.19-.35,6.07,6.07,0,0,0-1.85.31c-.66.21-1.13.36-1.42.47h-.32V257a18.28,18.28,0,0,1,1.81-.35,16.46,16.46,0,0,1,2.52-.2,7.87,7.87,0,0,1,4.33.92,3.28,3.28,0,0,1,1.33,2.9v7.46h-3.49Zm0-1.71v-2.28l-1.54.16a7.87,7.87,0,0,0-1.26.24,1.79,1.79,0,0,0-.81.48,1.25,1.25,0,0,0-.27.84,2.72,2.72,0,0,0,0,.55.85.85,0,0,0,.3.41,1.41,1.41,0,0,0,.54.29,3.75,3.75,0,0,0,1,.09,3,3,0,0,0,1.07-.21A3.58,3.58,0,0,0,542.23,264.87Z"/><path class="cls-24" d="M553.33,263.9l-3.52,7.45h-2.18l1.93-7.45Z"/><path class="cls-24" d="M574.65,267.74h-4l-2.94-4.35h-1.12v4.35H563v-11h3.53v4.41a3.34,3.34,0,0,0,1.35-.21,2.89,2.89,0,0,0,.85-1.06c.1-.17.22-.39.35-.66l.33-.61a3.82,3.82,0,0,1,1.25-1.42,3.64,3.64,0,0,1,2-.47H574v2.93h-1a1.37,1.37,0,0,0-.93.3,2.33,2.33,0,0,0-.6.86,5.21,5.21,0,0,1-.39.76,1.75,1.75,0,0,1-.46.48Z"/><path class="cls-24" d="M587.64,262.26a5.71,5.71,0,0,1-1.57,4.26,7.07,7.07,0,0,1-8.86,0,6.54,6.54,0,0,1,0-8.54,7.09,7.09,0,0,1,8.86,0A5.78,5.78,0,0,1,587.64,262.26Zm-4.32,2.67a2.75,2.75,0,0,0,.51-1,6.37,6.37,0,0,0,.17-1.64,6.25,6.25,0,0,0-.18-1.62,2.69,2.69,0,0,0-.48-1.05,1.74,1.74,0,0,0-.76-.56,2.62,2.62,0,0,0-.94-.17,2.85,2.85,0,0,0-.91.14,1.77,1.77,0,0,0-.75.55,2.74,2.74,0,0,0-.52,1,7.34,7.34,0,0,0,0,3.23,2.68,2.68,0,0,0,.49,1.06,1.83,1.83,0,0,0,.75.55,2.57,2.57,0,0,0,1,.18,2.53,2.53,0,0,0,.91-.16A1.71,1.71,0,0,0,583.32,264.93Z"/><path class="cls-24" d="M599.12,259.16h-3.5v8.58H592.1v-8.58h-3.5v-2.39h10.52Z"/><path class="cls-24" d="M612.08,262.26a5.71,5.71,0,0,1-1.58,4.26,7.07,7.07,0,0,1-8.86,0,6.58,6.58,0,0,1,0-8.54,7.09,7.09,0,0,1,8.86,0A5.79,5.79,0,0,1,612.08,262.26Zm-4.33,2.67a2.75,2.75,0,0,0,.51-1,6,6,0,0,0,.17-1.64,6.29,6.29,0,0,0-.17-1.62,2.85,2.85,0,0,0-.49-1.05,1.77,1.77,0,0,0-.75-.56,2.67,2.67,0,0,0-.95-.17,2.74,2.74,0,0,0-.9.14,1.73,1.73,0,0,0-.76.55,2.88,2.88,0,0,0-.51,1,6,6,0,0,0-.19,1.67,6.51,6.51,0,0,0,.16,1.56,2.82,2.82,0,0,0,.49,1.06,1.83,1.83,0,0,0,.75.55,2.57,2.57,0,0,0,1,.18,2.53,2.53,0,0,0,.91-.16A1.71,1.71,0,0,0,607.75,264.93Z"/><path class="cls-24" d="M626,262.1a7.25,7.25,0,0,1-.41,2.48,5.46,5.46,0,0,1-1.09,1.83,4.75,4.75,0,0,1-1.59,1.15,4.68,4.68,0,0,1-1.9.39,5.22,5.22,0,0,1-1.59-.2,7.51,7.51,0,0,1-1.34-.56v4.57H614.6v-15h3.52v1.15a8.53,8.53,0,0,1,1.66-1.05,4.43,4.43,0,0,1,1.94-.4,3.77,3.77,0,0,1,3.19,1.5A6.77,6.77,0,0,1,626,262.1Zm-3.62.08a3.83,3.83,0,0,0-.55-2.32,2,2,0,0,0-1.72-.72,3.71,3.71,0,0,0-1,.15,4.1,4.1,0,0,0-1,.43v5.51a3.16,3.16,0,0,0,.75.18l.79,0a2.58,2.58,0,0,0,2.08-.81A3.77,3.77,0,0,0,622.42,262.18Z"/><path class="cls-24" d="M633.53,263.86l2.5-7.09h3.62l-6.1,15h-3.81l1.74-4.1-4.27-10.89h3.7Z"/><path class="cls-24" d="M647.25,263h-2.13v4.71H641.6v-11h3.52v3.81h2.27a5,5,0,0,1,1.86-3.06,6.2,6.2,0,0,1,3.79-1.09,5.9,5.9,0,0,1,4.37,1.56,5.82,5.82,0,0,1,1.55,4.27,5.74,5.74,0,0,1-1.56,4.26,5.89,5.89,0,0,1-4.36,1.56,6,6,0,0,1-4-1.3A5.3,5.3,0,0,1,647.25,263Zm7.4,1.9a3.08,3.08,0,0,0,.5-1,6.37,6.37,0,0,0,.17-1.64,6.85,6.85,0,0,0-.17-1.63,2.87,2.87,0,0,0-.48-1,1.68,1.68,0,0,0-.71-.56,2.76,2.76,0,0,0-1.82,0,1.77,1.77,0,0,0-.75.55,2.69,2.69,0,0,0-.5,1.06,6.6,6.6,0,0,0-.18,1.65,6,6,0,0,0,.18,1.61,3,3,0,0,0,.45,1,1.83,1.83,0,0,0,.72.55,2.52,2.52,0,0,0,1,.18,2.42,2.42,0,0,0,.89-.16A1.6,1.6,0,0,0,654.65,264.93Z"/><path class="cls-24" d="M681,263.29a4.1,4.1,0,0,1-.42,1.88,3.89,3.89,0,0,1-1.17,1.38,5.54,5.54,0,0,1-1.89.92,10.51,10.51,0,0,1-2.61.27h-6.35V253.2h5.65a19.54,19.54,0,0,1,2.57.12,5.34,5.34,0,0,1,1.62.51,2.88,2.88,0,0,1,1.23,1.13,3.39,3.39,0,0,1-.15,3.48,3.66,3.66,0,0,1-1.57,1.25v.08a4.13,4.13,0,0,1,2.26,1.17A3.28,3.28,0,0,1,681,263.29Zm-4.8-6a1.6,1.6,0,0,0-.18-.72,1.16,1.16,0,0,0-.64-.54,3.18,3.18,0,0,0-1-.17l-1.72,0h-.35v3.08h.59c.59,0,1.1,0,1.51,0a2.75,2.75,0,0,0,1-.19,1.21,1.21,0,0,0,.66-.58A2,2,0,0,0,676.15,257.31Zm.91,5.92a1.82,1.82,0,0,0-.27-1.07,1.6,1.6,0,0,0-.91-.56,4.66,4.66,0,0,0-1.21-.14h-2.43v3.62h2.54a3.21,3.21,0,0,0,1.25-.25,1.56,1.56,0,0,0,.81-.65A2,2,0,0,0,677.06,263.23Z"/><path class="cls-24" d="M694.21,264a3.63,3.63,0,0,1-.34,1.55,3.32,3.32,0,0,1-.86,1.16,4,4,0,0,1-1.38.76,6.42,6.42,0,0,1-1.9.23h-6.18v-11h3.51v3.66h2.68a8.23,8.23,0,0,1,1.91.18,3.78,3.78,0,0,1,1.38.65,2.77,2.77,0,0,1,.88,1.18A4.22,4.22,0,0,1,694.21,264Zm-3.62,0a1.31,1.31,0,0,0-.42-1.06,1.85,1.85,0,0,0-1.2-.35h-1.91v2.86H689a2.06,2.06,0,0,0,.85-.15,1.13,1.13,0,0,0,.49-.37,1.34,1.34,0,0,0,.22-.45A2,2,0,0,0,690.59,264.07Zm8.37,3.67h-3.52v-11H699Z"/><path class="cls-24" d="M720.21,267.74H716.8V261L712,267.74h-2.91v-11h3.41v6l4.41-6h3.26Z"/><path class="cls-24" d="M738.26,267.74H723.53v-11H727v8.56h3.1v-8.56h3.51v8.56h3.1v-8.56h3.51v8.56h1.12v5.12h-3.12Z"/><path class="cls-24" d="M754.59,262.91h-8.05a2.54,2.54,0,0,0,1,2,4.4,4.4,0,0,0,2.66.68,6,6,0,0,0,2.16-.4,6.59,6.59,0,0,0,1.65-.86h.39v2.82a13.56,13.56,0,0,1-2.24.7,12.12,12.12,0,0,1-2.34.21,7.64,7.64,0,0,1-5.06-1.48,5.23,5.23,0,0,1-1.75-4.23,5.66,5.66,0,0,1,1.66-4.3,6.34,6.34,0,0,1,4.57-1.59,5.46,5.46,0,0,1,4,1.35,5.3,5.3,0,0,1,1.35,3.9Zm-3.5-2.06a2.48,2.48,0,0,0-.55-1.67,2.09,2.09,0,0,0-1.61-.55,2.55,2.55,0,0,0-1.67.53,2.25,2.25,0,0,0-.73,1.69Z"/><path class="cls-24" d="M766,259.16h-3.49v8.58H759v-8.58h-3.5v-2.39H766Z"/><path class="cls-24" d="M778.57,262.91h-8.05a2.55,2.55,0,0,0,1,2,4.38,4.38,0,0,0,2.66.68,5.86,5.86,0,0,0,2.15-.4,6.87,6.87,0,0,0,1.66-.86h.39v2.82a14,14,0,0,1-2.25.7,11.94,11.94,0,0,1-2.33.21,7.64,7.64,0,0,1-5.06-1.48,5.24,5.24,0,0,1-1.76-4.23,5.66,5.66,0,0,1,1.66-4.3,6.36,6.36,0,0,1,4.57-1.59,5.46,5.46,0,0,1,4,1.35,5.3,5.3,0,0,1,1.35,3.9Zm-3.5-2.06a2.47,2.47,0,0,0-.54-1.67,2.11,2.11,0,0,0-1.61-.55,2.52,2.52,0,0,0-1.67.53,2.26,2.26,0,0,0-.74,1.69Z"/><path class="cls-24" d="M785.43,263.9l-3.52,7.45h-2.18l1.93-7.45Z"/><path class="cls-24" d="M806.19,267.74h-3.53v-4.68h-4v4.68h-3.53v-11h3.53v3.78h4v-3.78h3.53Z"/><path class="cls-24" d="M820.31,262.91h-8a2.54,2.54,0,0,0,1,2,4.42,4.42,0,0,0,2.66.68,5.87,5.87,0,0,0,2.16-.4,6.59,6.59,0,0,0,1.65-.86h.39v2.82a13.56,13.56,0,0,1-2.24.7,12,12,0,0,1-2.34.21,7.61,7.61,0,0,1-5-1.48,5.21,5.21,0,0,1-1.76-4.23,5.66,5.66,0,0,1,1.66-4.3,6.34,6.34,0,0,1,4.57-1.59,5.46,5.46,0,0,1,4,1.35,5.3,5.3,0,0,1,1.35,3.9Zm-3.5-2.06a2.53,2.53,0,0,0-.54-1.67,2.13,2.13,0,0,0-1.62-.55,2.51,2.51,0,0,0-1.66.53,2.22,2.22,0,0,0-.74,1.69Z"/><path class="cls-24" d="M840.7,267.74h-3.53v-4.68h-4v4.68h-3.52v-11h3.52v3.78h4v-3.78h3.53Z"/><path class="cls-24" d="M850.66,266.58l-.7.52a4.94,4.94,0,0,1-.79.47,4.7,4.7,0,0,1-1.08.35,6.59,6.59,0,0,1-1.22.11,3.76,3.76,0,0,1-2.62-1,3.22,3.22,0,0,1-1-2.47,3.33,3.33,0,0,1,.54-2,3.49,3.49,0,0,1,1.52-1.2,8.6,8.6,0,0,1,2.42-.62c1-.13,2-.22,3-.28v-.06a1.27,1.27,0,0,0-.74-1.25,5.42,5.42,0,0,0-2.19-.35,6,6,0,0,0-1.85.31c-.66.21-1.13.36-1.42.47h-.32V257a18.28,18.28,0,0,1,1.81-.35,16.23,16.23,0,0,1,2.51-.2,7.83,7.83,0,0,1,4.33.92,3.28,3.28,0,0,1,1.34,2.9v7.46h-3.49Zm0-1.71v-2.28l-1.54.16a7.44,7.44,0,0,0-1.26.24,1.79,1.79,0,0,0-.81.48,1.25,1.25,0,0,0-.28.84,2.09,2.09,0,0,0,.06.55.85.85,0,0,0,.3.41,1.36,1.36,0,0,0,.53.29,3.9,3.9,0,0,0,1,.09,3,3,0,0,0,1.07-.21A3.58,3.58,0,0,0,850.66,264.87Z"/><path class="cls-24" d="M868.46,267.74h-3.4V261l-4.77,6.71h-2.91v-11h3.41v6l4.41-6h3.26Zm-1.21-15.83a3.37,3.37,0,0,1-1.09,2.6,5.68,5.68,0,0,1-6.45,0,3.36,3.36,0,0,1-1.09-2.59h2.71a2.53,2.53,0,0,0,.38,1.44,1.41,1.41,0,0,0,1.23.47,1.44,1.44,0,0,0,1.23-.46,2.58,2.58,0,0,0,.37-1.45Z"/><path class="cls-24" d="M883.22,270.45h-3.13V267.7h-6.48v2.75h-3.12v-5.16h.9a15.9,15.9,0,0,0,1.19-3.78,23.86,23.86,0,0,0,.44-4.74h9.07v8.52h1.13Zm-4.63-5.16v-6.07h-2.41a21.79,21.79,0,0,1-.56,3.36,14.2,14.2,0,0,1-1,2.71Z"/><path class="cls-24" d="M896.41,262.91h-8a2.54,2.54,0,0,0,1,2,4.4,4.4,0,0,0,2.66.68,6,6,0,0,0,2.16-.4,7,7,0,0,0,1.65-.86h.39v2.82a14,14,0,0,1-2.25.7,11.94,11.94,0,0,1-2.33.21,7.64,7.64,0,0,1-5.06-1.48,5.24,5.24,0,0,1-1.76-4.23,5.66,5.66,0,0,1,1.67-4.3,6.33,6.33,0,0,1,4.56-1.59,5.47,5.47,0,0,1,4,1.35,5.33,5.33,0,0,1,1.34,3.9Zm-3.49-2.06a2.48,2.48,0,0,0-.55-1.67,2.11,2.11,0,0,0-1.61-.55,2.52,2.52,0,0,0-1.67.53,2.22,2.22,0,0,0-.73,1.69Z"/><path class="cls-24" d="M910,267.74h-3.53v-4.68h-4v4.68h-3.53v-11h3.53v3.78h4v-3.78H910Z"/><path class="cls-24" d="M919.93,266.58l-.7.52a4.6,4.6,0,0,1-.8.47,4.47,4.47,0,0,1-1.07.35,6.59,6.59,0,0,1-1.22.11,3.76,3.76,0,0,1-2.62-1,3.22,3.22,0,0,1-1-2.47,3.4,3.4,0,0,1,.53-2,3.58,3.58,0,0,1,1.53-1.2,8.6,8.6,0,0,1,2.42-.62c1-.13,2-.22,3-.28v-.06a1.27,1.27,0,0,0-.74-1.25,5.42,5.42,0,0,0-2.19-.35,6.13,6.13,0,0,0-1.86.31c-.65.21-1.13.36-1.41.47h-.33V257c.38-.1,1-.22,1.82-.35a16.23,16.23,0,0,1,2.51-.2,7.85,7.85,0,0,1,4.33.92,3.28,3.28,0,0,1,1.33,2.9v7.46h-3.48Zm0-1.71v-2.28l-1.54.16a7.44,7.44,0,0,0-1.26.24,1.73,1.73,0,0,0-.81.48,1.2,1.2,0,0,0-.28.84,2.09,2.09,0,0,0,.06.55.89.89,0,0,0,.29.41,1.41,1.41,0,0,0,.54.29,3.84,3.84,0,0,0,1,.09,3,3,0,0,0,1.07-.21A3.75,3.75,0,0,0,919.93,264.87Z"/><path class="cls-24" d="M937.67,260.61H934v-3.84h3.65Zm0,7.13H934V263.9h3.65Z"/><path class="cls-24" d="M949.12,271.76h-3.68a15.71,15.71,0,0,1-2.78-4.52,14.66,14.66,0,0,1,0-10.17,15.89,15.89,0,0,1,2.78-4.53h3.68v.29a13,13,0,0,0-1.51,1.61,12.62,12.62,0,0,0-1.33,2.12,13,13,0,0,0-1,2.58,13,13,0,0,0,0,6,13,13,0,0,0,1,2.57,12.4,12.4,0,0,0,1.32,2.09,12.13,12.13,0,0,0,1.52,1.64Z"/><path class="cls-11" d="M446.44,973.74c-7.41,0-14.72-5.56-22.89-17.37a29.18,29.18,0,0,1-4.86-22.51c1.92-10.05,8.91-19.74,19.17-26.58,9.8-6.53,17.19-11.26,23.25-14.6A33,33,0,0,0,440,877.43c-1.07-.27-2.18-.53-3.35-.79-26.68-5.93-50.06,1.28-79.66,10.41l-3.21,1c-7.27,2.24-15.69,5-25.44,8.27C303,904.73,271.52,915.2,238.49,923c-24.83,5.85-256,13.58-307.46,10.2l-45.65-10.81c48.28,3.17,313,6,351.05-8.14,31.43-11.67,63.91-18.08,89.05-26.44,9.79-3.26,18.26-6.07,25.62-8.34l3.21-1c30.87-9.52,55.26-17,84.27-10.58,1.23.27,2.41.55,3.54.82a42.26,42.26,0,0,1,27.1,20,35.18,35.18,0,0,1,13.92-2.91c5.91,0,17.47,2.83,35,7.11,56.15,13.75,160.66,39.34,244.53,11.74,6.76-2.22,12.61-3.89,18.27-5.5,20.69-5.89,42.08-12,114.52-46.33,7.34-3.47,14.09-6.88,20.63-10.17,28.56-14.38,51.54-25.95,92.74-29.37l17.79,6.29c-45.53,2.22-76.72,16.11-106.49,31.11-6.58,3.31-13.39,6.74-20.82,10.26-73.11,34.67-94.87,40.86-115.91,46.85-5.83,1.66-11.34,3.23-17.92,5.4C679.11,941.62,573,915.63,516,901.66c-15.64-3.82-28-6.85-32.82-6.85A26.19,26.19,0,0,0,473,896.87c6.9,18.78,3.46,40.78-3.11,54.1-5.35,10.82-12.18,22-22.39,22.73C447.17,973.73,446.8,973.74,446.44,973.74Zm18.46-72.89c-5.46,3-12.45,7.5-22,13.91-8.27,5.51-13.86,13.09-15.33,20.79a20.1,20.1,0,0,0,3.41,15.7c6.32,9.13,11.83,13.81,15.95,13.49,4.34-.32,9.24-6.12,15-17.75S470.22,916.34,464.9,900.85Z"/><path class="cls-13" d="M725.52,731.17l64.28,50.69s3.42-6.67,3.13-9.91c-.61-6.81-60.83-40.17-67.11-74.44l-7.28,12a11.46,11.46,0,0,0-1.49,7.74c0,.15.06.32.09.49A23,23,0,0,0,725.52,731.17Z"/><path class="cls-13" d="M755,619.52c2.37,1.42.7,8.4-1.45,17.39-2.9,12.13-7.41,21.44-12.32,30.44-9,16.53-15.49,30.45-15.49,30.45C714,703.11,660.78,707.89,655,701c0,0-43.71-45.62-41.57-49.9,1.33-2.67,5.13,7.07,27.79,16.1,19.15,7.63,38.3,8.52,67.34-6.39S749.86,616.45,755,619.52Z"/><path class="cls-13" d="M783.4,551.93a156.35,156.35,0,0,0-27-17.56,118,118,0,0,0-14.75-6.3c-2.51-.9-5.08-1.65-7.64-2.36-1.29-.3-2.57-.62-3.87-.9s-2.6-.52-3.91-.73a164.08,164.08,0,0,0-32-1.47c-5.35.21-10.7.61-16.05,1.1l-4,.39c-1.3.16-2.59.31-3.88.53a71.07,71.07,0,0,0-7.63,1.67A92.09,92.09,0,0,0,634.52,540a184.26,184.26,0,0,0-24.15,20.72c-1.84,1.92-3.72,3.79-5.51,5.74s-3.57,3.9-5.22,6a136.84,136.84,0,0,0-9.44,12.66c-5.87,8.74-10.52,18.29-15.85,28a152.77,152.77,0,0,1-8.81,14.24,115.52,115.52,0,0,1-11,12.9,155.33,155.33,0,0,1-12.28,11.38,166.28,166.28,0,0,1-42.73,26,153.54,153.54,0,0,1-32.12,9.28,147.57,147.57,0,0,1-33.3,1.9,145.21,145.21,0,0,1-16.52-1.87,161.17,161.17,0,0,1-16.17-3.55c-21.29-5.86-41.08-15.82-58.94-28.13l.53-.86c19,10.21,39.06,18.51,59.9,22.84a162.48,162.48,0,0,0,31.48,3.55,149.16,149.16,0,0,0,31.3-3c20.56-4.17,40-13,57.32-24.75A173.94,173.94,0,0,0,547.31,633a114.72,114.72,0,0,0,10.31-11.55,143.79,143.79,0,0,0,8.74-13c5.47-9.08,10.58-18.92,17.08-28a164.82,164.82,0,0,1,21.84-25,190.46,190.46,0,0,1,25.63-20.81,98.15,98.15,0,0,1,30.35-13.73,74.69,74.69,0,0,1,8.26-1.57c1.38-.21,2.78-.33,4.17-.46l4.09-.3c5.44-.36,10.89-.54,16.35-.58a168.12,168.12,0,0,1,32.71,2.64c1.35.26,2.69.59,4,.89s2.67.72,4,1.08c2.62.83,5.23,1.69,7.78,2.71a119.38,119.38,0,0,1,14.83,7,155.34,155.34,0,0,1,26.57,18.87Z"/><path class="cls-13" d="M797.11,475.21a103.66,103.66,0,0,1,13.09,6.2,142.71,142.71,0,0,1,12.32,7.66c2,1.39,4,2.83,5.85,4.4a32.84,32.84,0,0,1,2.79,2.55,9.78,9.78,0,0,1,.68.74c.22.26.47.6.64.84.37.52.76,1,1.1,1.57a29,29,0,0,1,3.3,7,70.67,70.67,0,0,1,1.72,7.22,23.9,23.9,0,0,0,2,6.12,15.43,15.43,0,0,0,3.7,4.57,39.17,39.17,0,0,0,11.44,6.24c1,.42,2.16.78,3.24,1.15l3.32,1,3.37.89c1.06.29,2.09.59,3.19.82a117.78,117.78,0,0,0,13.58,2.11l7.08.76c1.21.13,2.43.25,3.67.42s2.49.33,4,.69a60.39,60.39,0,0,1,14.6,5.7,77.35,77.35,0,0,1,23.15,19.68,82.07,82.07,0,0,1,14.15,26.31A71.67,71.67,0,0,1,952.32,619h-1a86.35,86.35,0,0,0-22.87-49.84,76.42,76.42,0,0,0-21.38-16.24A57.62,57.62,0,0,0,901,550.3c-1-.39-2.06-.71-3.09-1-.51-.19-1-.3-1.56-.45l-.79-.22c-.26-.07-.53-.15-.72-.18-.8-.18-2-.34-3.06-.49l-3.48-.43c-2.36-.29-4.77-.58-7.2-.91a111.74,111.74,0,0,1-14.73-3c-1.23-.34-2.48-.76-3.71-1.18L859.22,541c-2.28-1-4.56-2-6.82-3.14-4.5-2.26-9-4.79-12.94-8.76a20.75,20.75,0,0,1-4.59-7.08,29.24,29.24,0,0,1-1.64-7.76c-.26-2.46-.42-4.73-.82-6.93a24.79,24.79,0,0,0-2-6.31c-.23-.5-.53-1-.79-1.48a4.57,4.57,0,0,0-.4-.63c-.16-.2-.31-.41-.5-.61a32.15,32.15,0,0,0-2.39-2.44c-1.71-1.58-3.54-3.09-5.41-4.55-3.73-2.93-7.66-5.64-11.66-8.22a102.86,102.86,0,0,0-12.49-6.94Z"/><path class="cls-13" d="M896.44,754.83l-35-10.39-11.86-33.2,52.39.37c-32.48-6.13-67.2-15.69-83.43-30.12C794,659.74,780,626.86,777.24,628.32c-1.49.79,3.58,9.82,4.9,22.39a74.21,74.21,0,0,1-9.81,44.77l45.06,15.13,26.33,39.6-7.28,16.44,12.18,5.65,8.3-13.35,33.44,10.26h0a4.86,4.86,0,0,0-1.68-7.46l-8-3.8L898,761.37A3.87,3.87,0,0,0,896.44,754.83Z"/><path class="cls-13" d="M644.68,771l-25-7.28-11.8-60.53,9.12,1.67c-3.92-3.52-11.74-8.62-19.09-14.92-19-16.24-28.47-24.92-34.47-25.85-10.8-1.66-41.35,26.4-105.92,35.93-94.26,13.9-192.87-42.78-208-122.08,0,0,11.28,125,178.51,138.14,27.92,2.2,74.87,7.79,132.91-21.64l12,2.35,31.53,72.65L588.29,787.6a2.29,2.29,0,0,0,.78,3.62l9-7.21-6.35,8.38h0a7.56,7.56,0,0,0,8.09-1.24l17.1-15,21.3,4.32a5.78,5.78,0,0,0,6.17-2.8l-8.58-3.78L646.15,775A2.67,2.67,0,0,0,644.68,771Z"/><path class="cls-25" d="M1093.66,493.35c-35.47-85.93-94.91-77.71-39.2,30.15,187,362-36.18,296.76-48.86,252.94-47.16-163.06-118.1-102.5-125.38-86.38-10.33,22.85,94,71.1,27,136.41-92.39,90-379.13,184-416.64-73.83-4.8-32.94,27.33-33,33.95-13.06,5.12,15.45-27.32,86.94-73.13,91.42-41.58,4.07-63.21-36.07-97.27-28-28.87,6.86-26.18,34.17-59.45,72.37-15.79,18.13-64.92,56.1-114.86,43.28C153.94,912,137.36,892.91,123,876.4c-24.41-28-29.93-51.5-38.84-68.4C69,779.35,31.85,746.18-67.94,732"/><path class="cls-14" d="M889.07,204.94h-9.72v16.61H861.77V204.94H827.25v-13.5l33.37-41.37h18.73v41.84h9.72Zm-27.3-13V166.1L841,191.91Z"/><path class="cls-14" d="M957.29,185.67a72.9,72.9,0,0,1-1.62,16.12,30.3,30.3,0,0,1-5.08,11.66,22.09,22.09,0,0,1-9.1,7,40.29,40.29,0,0,1-27.34,0,21.78,21.78,0,0,1-9.14-7.09,30.17,30.17,0,0,1-5.12-11.67,72.22,72.22,0,0,1-1.58-16,70.83,70.83,0,0,1,1.62-16.14,31.19,31.19,0,0,1,5.18-11.6,21.71,21.71,0,0,1,9.19-7,35,35,0,0,1,13.5-2.35A34.46,34.46,0,0,1,941.54,151a22.17,22.17,0,0,1,9.1,7.21,30.58,30.58,0,0,1,5.07,11.57A71.07,71.07,0,0,1,957.29,185.67Zm-18.52,0q0-12.94-2.54-18.43a9.22,9.22,0,0,0-16.86,0q-2.54,5.49-2.53,18.52,0,12.7,2.58,18.31t8.38,5.61q5.79,0,8.38-5.61T938.77,185.67Z"/><path class="cls-14" d="M1028.58,205.06h-9.72v16.62h-17.58V205.06H966.76v-13.5l33.38-41.37h18.72V192h9.72Zm-27.3-13V166.23L980.53,192Z"/><path class="cls-14" d="M883.23,121.29a9.61,9.61,0,0,1-2.53,7,10.71,10.71,0,0,1-14,0,11,11,0,0,1,0-14.07,10.76,10.76,0,0,1,14,0A9.62,9.62,0,0,1,883.23,121.29ZM876.91,126a5.39,5.39,0,0,0,1-2,9.48,9.48,0,0,0,.34-2.7,9,9,0,0,0-.39-2.83,5.44,5.44,0,0,0-1-1.89,3.69,3.69,0,0,0-1.46-1.08,4.59,4.59,0,0,0-1.72-.34,4.49,4.49,0,0,0-1.71.33,4,4,0,0,0-1.47,1.06,5.41,5.41,0,0,0-1,1.92,9.37,9.37,0,0,0-.39,2.84,9.18,9.18,0,0,0,.38,2.81,5.42,5.42,0,0,0,1,1.9,4,4,0,0,0,1.45,1.08,4.51,4.51,0,0,0,1.75.34,4.34,4.34,0,0,0,1.75-.35A3.76,3.76,0,0,0,876.91,126Z"/><path class="cls-14" d="M911.75,130.53H886.87V112h4.77v15h5.29V112h4.77v15H907V112h4.76Z"/><path class="cls-14" d="M933.32,130.53h-4.64V118.22L921,130.53h-4.54V112h4.64v11.14L928.24,112h5.08Z"/><path class="cls-14" d="M953.73,124.59a6,6,0,0,1-.51,2.49,5.1,5.1,0,0,1-1.41,1.86,6.75,6.75,0,0,1-2.36,1.25,11.42,11.42,0,0,1-3,.34H938V112h14.37v3.58h-9.62v3.31h3.86a14.42,14.42,0,0,1,3.16.28,5.55,5.55,0,0,1,2.18,1,4.37,4.37,0,0,1,1.39,1.89A6.82,6.82,0,0,1,953.73,124.59Zm-4.93.14a3.46,3.46,0,0,0-.1-.87,1.63,1.63,0,0,0-.43-.76,2.4,2.4,0,0,0-.92-.53,5.3,5.3,0,0,0-1.62-.2h-3v4.71h3a4.66,4.66,0,0,0,1.41-.2,2.83,2.83,0,0,0,1-.51,2.05,2.05,0,0,0,.51-.72A2.25,2.25,0,0,0,948.8,124.73Z"/><path class="cls-14" d="M974.48,130.53h-5.85l-5.46-7.46H962v7.46h-4.77V112H962v7.54a5.68,5.68,0,0,0,1-.12,2,2,0,0,0,.71-.33,4.26,4.26,0,0,0,.72-.74,12.1,12.1,0,0,0,.8-1.21c.18-.3.37-.65.59-1.06l.55-1a6.91,6.91,0,0,1,2-2.39,5.68,5.68,0,0,1,3.19-.72l1.13,0,.73,0v4H972a2.21,2.21,0,0,0-1.58.52,6.74,6.74,0,0,0-1.25,1.84,11,11,0,0,1-1.12,1.83,3.11,3.11,0,0,1-.84.75Z"/><path class="cls-14" d="M993.92,130.53H989l-1.29-3.74h-6.84l-1.29,3.74h-4.8L981.6,112h5.49Zm-7.36-7.13-2.27-6.62L982,123.4Z"/></g></g></svg>